<?xml version="1.0" encoding="UTF-8"?>
<!-- Generator: visioncortex VTracer 0.6.3 -->
<svg version="1.1" xmlns="http://www.w3.org/2000/svg" width="1280" height="768">
<path d="M0 0 C422.4 0 844.8 0 1280 0 C1280 253.44 1280 506.88 1280 768 C857.6 768 435.2 768 0 768 C0 514.56 0 261.12 0 0 Z " fill="#1B1D1B" transform="translate(0,0)"/>
<path d="M0 0 C3.91 0.04 7.82 0.05 11.73 0.05 C30.61 0.09 49.46 0.41 68.32 1.45 C69.05 1.49 69.77 1.53 70.52 1.57 C110.3 3.78 149.84 14.8 186.3 30.53 C187.12 30.88 187.94 31.23 188.78 31.59 C203.74 38.09 217.37 46.6 230.3 56.53 C231.1 57.12 231.9 57.71 232.72 58.32 C249.02 70.96 263.06 86.28 274.3 103.53 C275.23 104.92 275.23 104.92 276.18 106.34 C309.39 158.85 296.3 230.12 296.3 286.53 C109.19 286.53 -77.92 286.53 -270.7 286.53 C-270.7 122.03 -270.7 122.03 -225.13 74.72 C-220.6 70.34 -215.62 66.45 -210.7 62.53 C-209.98 61.94 -209.26 61.36 -208.52 60.75 C-194.68 49.65 -179.55 41.37 -163.7 33.53 C-162.88 33.12 -162.07 32.72 -161.24 32.3 C-135.98 19.77 -108.23 12.05 -80.7 6.53 C-80.02 6.39 -79.35 6.26 -78.66 6.12 C-52.34 0.9 -26.78 -0.31 0 0 Z " fill="#E7DFD4" transform="translate(628.6950073242188,481.471435546875)"/>
<path d="M0 0 C1.04 0 2.08 0.01 3.14 0.01 C41.48 0.28 75.89 9.02 106.56 33.12 C107.17 33.6 107.78 34.08 108.41 34.57 C135.87 56.38 156.05 85.51 166.94 118.81 C167.18 119.52 167.41 120.23 167.66 120.97 C172.19 135.52 171.88 150.63 171.82 165.7 C171.81 169.18 171.82 172.66 171.84 176.14 C171.85 191.07 171.46 205.08 166.5 219.31 C166.2 220.2 165.9 221.08 165.58 221.99 C160.65 235.98 154.35 249.13 145.56 261.12 C144.88 262.09 144.19 263.06 143.48 264.06 C138.15 271.44 132.23 278.11 125.95 284.67 C124.75 285.93 123.57 287.21 122.39 288.49 C105.98 305.86 84.45 318.13 62.44 326.94 C61.76 327.22 61.08 327.49 60.38 327.78 C48.53 332.36 36.61 333.59 24 333.52 C22.55 333.53 21.09 333.53 19.64 333.53 C16.63 333.54 13.61 333.53 10.59 333.52 C6.77 333.5 2.94 333.51 -0.89 333.53 C-3.88 333.54 -6.86 333.53 -9.85 333.53 C-11.26 333.52 -12.67 333.53 -14.08 333.53 C-39.43 333.63 -65.88 322.76 -86.44 308.12 C-87.01 307.72 -87.59 307.31 -88.19 306.9 C-123.22 282.15 -152.71 245.39 -160.44 202.12 C-161.92 191.63 -161.62 180.91 -161.62 170.34 C-161.62 167.26 -161.64 164.19 -161.66 161.12 C-161.71 146.77 -161.08 133.42 -156.25 119.75 C-155.94 118.86 -155.63 117.96 -155.31 117.04 C-146.43 91.8 -132.99 69.51 -114.44 50.12 C-113.72 49.34 -113 48.56 -112.26 47.75 C-90.82 25.2 -61.17 9.53 -30.94 2.75 C-30.25 2.59 -29.55 2.44 -28.84 2.28 C-19.31 0.3 -9.71 -0.05 0 0 Z " fill="#E7DFD4" transform="translate(637.4375,75.875)"/>
</svg>
